<svg xmlns="http://www.w3.org/2000/svg" viewBox="0 0 128 128" role="img" aria-labelledby="title desc">
  <title id="title">Agents Memory icon</title>
  <desc id="desc">A local-first AI agent memory runtime icon</desc>
  <rect width="128" height="128" rx="26" fill="#0f172a"/>
  <path d="M32 83V45c0-8.8 7.2-16 16-16h32c8.8 0 16 7.2 16 16v38c0 8.8-7.2 16-16 16H48c-8.8 0-16-7.2-16-16Z" fill="#e0f2fe"/>
  <path d="M48 51h32M48 64h21M48 77h32" stroke="#0f172a" stroke-width="8" stroke-linecap="round"/>
  <circle cx="96" cy="35" r="12" fill="#22c55e"/>
  <path d="M92 35.2l3 3.2 6-7" fill="none" stroke="#052e16" stroke-width="3.5" stroke-linecap="round" stroke-linejoin="round"/>
  <path d="M32 101c0-10.5 8.5-19 19-19h26c10.5 0 19 8.5 19 19" fill="none" stroke="#38bdf8" stroke-width="8" stroke-linecap="round"/>
</svg>
